<svg width="24" height="24" viewBox="0 0 24 24" fill="none" xmlns="http://www.w3.org/2000/svg">
<path d="M11.9885 0.641113C7.30303 0.641113 3.49219 4.45196 3.49219 9.13742C3.49219 10.6799 4.18376 12.3385 4.21312 12.4085C4.49341 13.0448 4.82171 13.6588 5.1952 14.2452L11.0202 23.072C11.2588 23.4337 11.6118 23.6411 11.9885 23.6411C12.3652 23.6411 12.7182 23.4337 12.9568 23.0726L18.7824 14.2452C19.1561 13.6589 19.4844 13.0449 19.7645 12.4085C19.7938 12.3392 20.4848 10.6805 20.4848 9.13742C20.4848 4.45196 16.674 0.641113 11.9885 0.641113ZM18.843 12.0205C18.6431 12.496 18.2333 13.2619 17.9478 13.6948L12.1222 22.5222C12.0072 22.6965 11.9704 22.6965 11.8554 22.5222L6.02983 13.6948C5.68961 13.1601 5.39034 12.6004 5.1346 12.0205C5.12585 11.9999 4.49175 10.4731 4.49175 9.13742C4.49175 5.00359 7.85467 1.64068 11.9885 1.64068C16.1223 1.64068 19.4852 5.00359 19.4852 9.13742C19.4852 10.4743 18.8493 12.0055 18.843 12.0205Z" fill="white"/>
<path d="M11.9902 4.63916C9.51006 4.63916 7.49219 6.65766 7.49219 9.1372C7.49219 11.6174 9.51006 13.6352 11.9902 13.6352C14.4704 13.6352 16.4883 11.6174 16.4883 9.1372C16.4883 6.65766 14.4704 4.63916 11.9902 4.63916ZM11.9902 12.6357C10.0617 12.6357 8.49175 11.067 8.49175 9.1372C8.49175 7.20742 10.0617 5.63873 11.9902 5.63873C13.9188 5.63873 15.4887 7.20867 15.4887 9.1372C15.4887 11.0657 13.9188 12.6357 11.9902 12.6357Z" fill="white"/>
</svg>
