<svg width="40" height="41" viewBox="0 0 40 41" fill="none" xmlns="http://www.w3.org/2000/svg">
<path d="M1 1.5H3.49562C3.96567 1.5 4.2007 1.5 4.38984 1.58596C4.55651 1.6617 4.69776 1.78353 4.79674 1.9369C4.90906 2.11093 4.9423 2.34231 5.00877 2.80504L5.91309 9.1M5.91309 9.1L7.92289 23.7897C8.17793 25.6538 8.30545 26.5859 8.7536 27.2875C9.14849 27.9057 9.71462 28.3972 10.3839 28.703C11.1434 29.05 12.0893 29.05 13.9811 29.05H30.3322C32.1331 29.05 33.0336 29.05 33.7694 28.7278C34.4183 28.4437 34.9748 27.9857 35.3769 27.405C35.8329 26.7465 36.0014 25.8669 36.3383 24.1076L38.8673 10.9044C38.9859 10.2852 39.0452 9.97565 38.9593 9.73365C38.8839 9.52136 38.7351 9.3426 38.5395 9.22923C38.3166 9.1 37.9996 9.1 37.3658 9.1H5.91309ZM16.2852 37.6C16.2852 38.6493 15.4298 39.5 14.3745 39.5C13.3193 39.5 12.4639 38.6493 12.4639 37.6C12.4639 36.5507 13.3193 35.7 14.3745 35.7C15.4298 35.7 16.2852 36.5507 16.2852 37.6ZM31.5704 37.6C31.5704 38.6493 30.7149 39.5 29.6597 39.5C28.6045 39.5 27.7491 38.6493 27.7491 37.6C27.7491 36.5507 28.6045 35.7 29.6597 35.7C30.7149 35.7 31.5704 36.5507 31.5704 37.6Z" stroke="white" stroke-width="1.5" stroke-linecap="round" stroke-linejoin="round"/>
</svg>
