<svg width="26" height="26" viewBox="0 0 26 26" fill="none" xmlns="http://www.w3.org/2000/svg">
<path d="M1.53157 13.2112H3.61537V24.3248C3.61537 24.7138 3.921 25.0194 4.30997 25.0194H22.3695C22.7585 25.0194 23.0641 24.7138 23.0641 24.3248V13.2112H25.1479C25.7592 13.2112 26.0648 12.461 25.6479 12.0166L13.8398 0.208439C13.5618 -0.0694797 13.1174 -0.0694797 12.8672 0.208439L1.03176 12.0166C0.614887 12.461 0.920515 13.2112 1.53177 13.2112H1.53157ZM13.3397 1.68089L23.4809 11.822H22.3696C21.9807 11.822 21.675 12.1277 21.675 12.5166V23.6302H5.00466V12.5166C5.00466 12.1277 4.69903 11.822 4.31007 11.822H3.19881L13.3397 1.68089Z" fill="#58D365" fill-opacity="0.7"/>
</svg>
