<svg width="18" height="19" viewBox="0 0 18 19" fill="none" xmlns="http://www.w3.org/2000/svg">
<path d="M9.87316 1.45116C9.56087 1.20319 9.40473 1.0792 9.23231 1.03154C9.08018 0.989487 8.91983 0.989487 8.76769 1.03154C8.59527 1.0792 8.43913 1.20319 8.12684 1.45116L2.09812 6.23824C1.69513 6.55824 1.49363 6.71824 1.34847 6.91861C1.21988 7.0961 1.12409 7.29606 1.0658 7.50865C1 7.74865 1 8.00926 1 8.53048V15.0961C1 16.1125 1 16.6208 1.19377 17.009C1.36421 17.3505 1.63617 17.6282 1.97068 17.8022C2.35097 18 2.8488 18 3.84444 18H5.62222C5.87113 18 5.99559 18 6.09066 17.9505C6.17429 17.907 6.24228 17.8376 6.28489 17.7523C6.33333 17.6552 6.33333 17.5281 6.33333 17.274V11.2846C6.33333 10.7764 6.33333 10.5223 6.43022 10.3281C6.51544 10.1574 6.65142 10.0186 6.81868 9.93156C7.00882 9.83265 7.25773 9.83265 7.75556 9.83265H10.2444C10.7423 9.83265 10.9912 9.83265 11.1813 9.93156C11.3486 10.0186 11.4846 10.1574 11.5698 10.3281C11.6667 10.5223 11.6667 10.7764 11.6667 11.2846V17.274C11.6667 17.5281 11.6667 17.6552 11.7151 17.7523C11.7577 17.8376 11.8257 17.907 11.9093 17.9505C12.0044 18 12.1289 18 12.3778 18H14.1556C15.1512 18 15.649 18 16.0293 17.8022C16.3638 17.6282 16.6358 17.3505 16.8062 17.009C17 16.6208 17 16.1125 17 15.0961V8.53048C17 8.00926 17 7.74865 16.9342 7.50865C16.8759 7.29606 16.7801 7.0961 16.6515 6.91861C16.5064 6.71824 16.3049 6.55824 15.9019 6.23824L9.87316 1.45116Z" fill="#EA8DFD" stroke="#EA8DFD" stroke-width="2" stroke-linecap="round" stroke-linejoin="round"/>
</svg>
