<svg width="14" height="14" viewBox="0 0 14 14" fill="none" xmlns="http://www.w3.org/2000/svg">
<path d="M8.80301 8.37263C8.80301 8.37263 8.90765 8.268 9.11691 8.05873C9.32617 7.84947 9.4308 7.44908 9.4308 6.85756C9.4308 6.26604 9.22154 5.76102 8.80301 5.34249C8.38449 4.92397 7.87946 4.7147 7.28795 4.7147C6.69643 4.7147 6.19141 4.92397 5.77288 5.34249C5.35435 5.76102 5.14509 6.26604 5.14509 6.85756C5.14509 7.44908 5.35435 7.9541 5.77288 8.37263C6.19141 8.79116 6.69643 9.00042 7.28795 9.00042C7.87946 9.00042 8.38449 8.79116 8.80301 8.37263ZM9.62333 4.52218C9.62333 4.52218 9.78376 4.68262 10.1046 5.00349C10.4255 5.32436 10.5859 5.94238 10.5859 6.85756C10.5859 7.77274 10.2651 8.5512 9.62333 9.19294C8.98158 9.83468 8.20312 10.1556 7.28795 10.1556C6.37277 10.1556 5.59431 9.83468 4.95257 9.19294C4.31083 8.5512 3.98996 7.77274 3.98996 6.85756C3.98996 5.94238 4.31083 5.16392 4.95257 4.52218C5.59431 3.88044 6.37277 3.55957 7.28795 3.55957C8.20312 3.55957 8.98158 3.88044 9.62333 4.52218ZM11.264 2.88156C11.264 2.88156 11.3016 2.91922 11.377 2.99456C11.4523 3.06989 11.49 3.21359 11.49 3.42564C11.49 3.6377 11.4146 3.81906 11.264 3.96973C11.1133 4.1204 10.9319 4.19573 10.7199 4.19573C10.5078 4.19573 10.3265 4.1204 10.1758 3.96973C10.0251 3.81906 9.94978 3.6377 9.94978 3.42564C9.94978 3.21359 10.0251 3.03223 10.1758 2.88156C10.3265 2.73089 10.5078 2.65555 10.7199 2.65555C10.9319 2.65555 11.1133 2.73089 11.264 2.88156ZM7.92829 1.57994C7.92829 1.57994 7.83133 1.58064 7.63742 1.58203C7.4435 1.58343 7.32701 1.58412 7.28795 1.58412C7.24888 1.58412 7.03544 1.58273 6.6476 1.57994C6.25977 1.57715 5.9654 1.57715 5.76451 1.57994C5.56362 1.58273 5.29436 1.5911 4.95675 1.60505C4.61914 1.619 4.33175 1.6469 4.09459 1.68876C3.85742 1.73061 3.65792 1.78223 3.49609 1.84361C3.21708 1.95522 2.97154 2.11705 2.75949 2.3291C2.54743 2.54116 2.3856 2.78669 2.274 3.06571C2.21261 3.22754 2.16099 3.42704 2.11914 3.6642C2.07729 3.90137 2.04939 4.18876 2.03544 4.52637C2.02148 4.86398 2.01311 5.13323 2.01032 5.33412C2.00753 5.53502 2.00753 5.82938 2.01032 6.21722C2.01311 6.60505 2.01451 6.8185 2.01451 6.85756C2.01451 6.89662 2.01311 7.11007 2.01032 7.49791C2.00753 7.88574 2.00753 8.18011 2.01032 8.381C2.01311 8.58189 2.02148 8.85114 2.03544 9.18876C2.04939 9.52637 2.07729 9.81376 2.11914 10.0509C2.16099 10.2881 2.21261 10.4876 2.274 10.6494C2.3856 10.9284 2.54743 11.174 2.75949 11.386C2.97154 11.5981 3.21708 11.7599 3.49609 11.8715C3.65792 11.9329 3.85742 11.9845 4.09459 12.0264C4.33175 12.0682 4.61914 12.0961 4.95675 12.1101C5.29436 12.124 5.56362 12.1324 5.76451 12.1352C5.9654 12.138 6.25977 12.138 6.6476 12.1352C7.03544 12.1324 7.24888 12.131 7.28795 12.131C7.32701 12.131 7.54046 12.1324 7.92829 12.1352C8.31613 12.138 8.61049 12.138 8.81138 12.1352C9.01228 12.1324 9.28153 12.124 9.61914 12.1101C9.95675 12.0961 10.2441 12.0682 10.4813 12.0264C10.7185 11.9845 10.918 11.9329 11.0798 11.8715C11.3588 11.7599 11.6044 11.5981 11.8164 11.386C12.0285 11.174 12.1903 10.9284 12.3019 10.6494C12.3633 10.4876 12.4149 10.2881 12.4568 10.0509C12.4986 9.81376 12.5265 9.52637 12.5405 9.18876C12.5544 8.85114 12.5628 8.58189 12.5656 8.381C12.5684 8.18011 12.5684 7.88574 12.5656 7.49791C12.5628 7.11007 12.5614 6.89662 12.5614 6.85756C12.5614 6.8185 12.5628 6.60505 12.5656 6.21722C12.5684 5.82938 12.5684 5.53502 12.5656 5.33412C12.5628 5.13323 12.5544 4.86398 12.5405 4.52637C12.5265 4.18876 12.4986 3.90137 12.4568 3.6642C12.4149 3.42704 12.3633 3.22754 12.3019 3.06571C12.1903 2.78669 12.0285 2.54116 11.8164 2.3291C11.6044 2.11705 11.3588 1.95522 11.0798 1.84361C10.918 1.78223 10.7185 1.73061 10.4813 1.68876C10.2441 1.6469 9.95675 1.619 9.61914 1.60505C9.28153 1.5911 9.01228 1.58273 8.81138 1.57994C8.61049 1.57715 8.31613 1.57715 7.92829 1.57994ZM13.6747 4.2041C13.7026 4.69517 13.7165 5.57966 13.7165 6.85756C13.7165 8.13546 13.7026 9.01995 13.6747 9.51102C13.6189 10.6717 13.2729 11.5702 12.6367 12.2063C12.0006 12.8425 11.1021 13.1885 9.94141 13.2443C9.45033 13.2722 8.56585 13.2861 7.28795 13.2861C6.01004 13.2861 5.12556 13.2722 4.63449 13.2443C3.47377 13.1885 2.57533 12.8425 1.93917 12.2063C1.30301 11.5702 0.957031 10.6717 0.901228 9.51102C0.873326 9.01995 0.859375 8.13546 0.859375 6.85756C0.859375 5.57966 0.873326 4.69517 0.901228 4.2041C0.957031 3.04339 1.30301 2.14495 1.93917 1.50879C2.57533 0.872629 3.47377 0.526647 4.63449 0.470843C5.12556 0.442942 6.01004 0.42899 7.28795 0.42899C8.56585 0.42899 9.45033 0.442942 9.94141 0.470843C11.1021 0.526647 12.0006 0.872629 12.6367 1.50879C13.2729 2.14495 13.6189 3.04339 13.6747 4.2041Z" fill="#B700FF"/>
</svg>
