<svg width="14" height="13" viewBox="0 0 14 13" fill="none" xmlns="http://www.w3.org/2000/svg">
<path d="M3.78069 4.58859V12.8838H1.01842V4.58859H3.78069ZM3.95647 2.0272C3.96205 2.43457 3.82115 2.77497 3.53376 3.04841C3.24637 3.32185 2.8683 3.45857 2.39955 3.45857H2.38281C1.92522 3.45857 1.55692 3.32185 1.2779 3.04841C0.998884 2.77497 0.859375 2.43457 0.859375 2.0272C0.859375 1.61426 1.00307 1.27246 1.29046 1.00181C1.57785 0.731167 1.95312 0.595843 2.41629 0.595843C2.87946 0.595843 3.25056 0.731167 3.52958 1.00181C3.80859 1.27246 3.95089 1.61426 3.95647 2.0272ZM13.7165 8.12932V12.8838H10.9626V8.44741C10.9626 7.86147 10.8496 7.40248 10.6236 7.07045C10.3976 6.73842 10.0446 6.57241 9.56473 6.57241C9.21317 6.57241 8.91881 6.66867 8.68164 6.86119C8.44448 7.05371 8.2673 7.29227 8.15011 7.57687C8.08873 7.74428 8.05804 7.97028 8.05804 8.25488V12.8838H5.30413C5.31529 10.6572 5.32087 8.85198 5.32087 7.46805C5.32087 6.08412 5.31808 5.25823 5.3125 4.99037L5.30413 4.58859H8.05804V5.79395H8.04129C8.1529 5.61537 8.2673 5.45912 8.38449 5.3252C8.50167 5.19127 8.65932 5.04618 8.85742 4.88993C9.05552 4.73368 9.29827 4.6123 9.58566 4.52581C9.87305 4.43931 10.1925 4.39607 10.5441 4.39607C11.4983 4.39607 12.2656 4.71275 12.846 5.34612C13.4263 5.97949 13.7165 6.90723 13.7165 8.12932Z" fill="#B700FF"/>
</svg>
