<svg width="18" height="14" viewBox="0 0 18 14" fill="none" xmlns="http://www.w3.org/2000/svg">
<path d="M16.2926 12.3353V5.04105C16.0899 5.269 15.8715 5.47795 15.6372 5.6679C13.9403 6.97226 12.5916 8.04235 11.5912 8.87815C11.2682 9.15042 11.0055 9.36254 10.8029 9.5145C10.6002 9.66646 10.3264 9.82001 9.9813 9.97514C9.63622 10.1303 9.31171 10.2078 9.00778 10.2078H8.99828H8.98878C8.68486 10.2078 8.36035 10.1303 8.01526 9.97514C7.67018 9.82001 7.39632 9.66646 7.19371 9.5145C6.99109 9.36254 6.72831 9.15042 6.40539 8.87815C5.40496 8.04235 4.05628 6.97226 2.35934 5.6679C2.12506 5.47795 1.90661 5.269 1.704 5.04105V12.3353C1.704 12.4177 1.73407 12.4889 1.79422 12.549C1.85438 12.6092 1.92561 12.6393 2.00792 12.6393H15.9886C16.071 12.6393 16.1422 12.6092 16.2023 12.549C16.2625 12.4889 16.2926 12.4177 16.2926 12.3353ZM16.2926 2.35318C16.2926 2.34052 16.2926 2.30569 16.2926 2.24871C16.2926 2.19172 16.2926 2.14898 16.2926 2.12049C16.2926 2.09199 16.291 2.05084 16.2878 1.99702C16.2847 1.9432 16.2752 1.90362 16.2593 1.87829C16.2435 1.85297 16.2261 1.82447 16.2071 1.79282C16.1881 1.76116 16.1596 1.73741 16.1216 1.72158C16.0836 1.70575 16.0393 1.69784 15.9886 1.69784H2.00792C1.92561 1.69784 1.85438 1.72791 1.79422 1.78807C1.73407 1.84822 1.704 1.91945 1.704 2.00177C1.704 3.06552 2.16939 3.96464 3.10017 4.69913C4.32221 5.66157 5.59175 6.66517 6.90877 7.70992C6.94676 7.74158 7.05757 7.83498 7.24119 7.99011C7.42482 8.14524 7.57045 8.26396 7.67809 8.34627C7.78573 8.42859 7.92662 8.52832 8.10074 8.64545C8.27487 8.76259 8.43475 8.84966 8.58038 8.90664C8.72601 8.96363 8.86215 8.99212 8.98878 8.99212H8.99828H9.00778C9.13442 8.99212 9.27055 8.96363 9.41618 8.90664C9.56182 8.84966 9.72169 8.76259 9.89582 8.64545C10.0699 8.52832 10.2108 8.42859 10.3185 8.34627C10.4261 8.26396 10.5717 8.14524 10.7554 7.99011C10.939 7.83498 11.0498 7.74158 11.0878 7.70992C12.4048 6.66517 13.6743 5.66157 14.8964 4.69913C15.2383 4.42686 15.5565 4.0612 15.8509 3.60214C16.1454 3.14308 16.2926 2.72676 16.2926 2.35318ZM17.5083 2.00177V12.3353C17.5083 12.7532 17.3595 13.111 17.0619 13.4086C16.7643 13.7062 16.4065 13.855 15.9886 13.855H2.00792C1.59002 13.855 1.23227 13.7062 0.934676 13.4086C0.63708 13.111 0.488281 12.7532 0.488281 12.3353V2.00177C0.488281 1.58386 0.63708 1.22611 0.934676 0.928518C1.23227 0.630921 1.59002 0.482122 2.00792 0.482122H15.9886C16.4065 0.482122 16.7643 0.630921 17.0619 0.928518C17.3595 1.22611 17.5083 1.58386 17.5083 2.00177Z" fill="white"/>
</svg>
