<svg width="19" height="19" viewBox="0 0 19 19" fill="none" xmlns="http://www.w3.org/2000/svg">
<path d="M5.14417 7.90694H5.15338M9.28833 7.90694H9.29754M13.4325 7.90694H13.4417M4.6837 14.8139V16.9647C4.6837 17.4554 4.6837 17.7008 4.78429 17.8268C4.87178 17.9364 5.00443 18.0002 5.14466 18C5.30591 17.9998 5.4975 17.8466 5.88068 17.54L8.07751 15.7825C8.52628 15.4235 8.75067 15.244 9.00053 15.1164C9.22221 15.0031 9.45817 14.9203 9.70202 14.8703C9.97688 14.8139 10.2642 14.8139 10.8389 14.8139H13.1562C14.7035 14.8139 15.4772 14.8139 16.0682 14.5128C16.588 14.2479 17.0107 13.8252 17.2755 13.3054C17.5767 12.7144 17.5767 11.9407 17.5767 10.3934V5.42044C17.5767 3.87314 17.5767 3.09949 17.2755 2.5085C17.0107 1.98865 16.588 1.566 16.0682 1.30112C15.4772 1 14.7035 1 13.1562 1H5.42044C3.87314 1 3.09949 1 2.5085 1.30112C1.98865 1.566 1.566 1.98865 1.30112 2.5085C1 3.09949 1 3.87314 1 5.42044V11.1302C1 11.9866 1 12.4148 1.09414 12.7662C1.34961 13.7196 2.09431 14.4643 3.04772 14.7197C3.39905 14.8139 3.82727 14.8139 4.6837 14.8139ZM5.60463 7.90694C5.60463 8.16125 5.39847 8.3674 5.14417 8.3674C4.88986 8.3674 4.6837 8.16125 4.6837 7.90694C4.6837 7.65264 4.88986 7.44648 5.14417 7.44648C5.39847 7.44648 5.60463 7.65264 5.60463 7.90694ZM9.74879 7.90694C9.74879 8.16125 9.54264 8.3674 9.28833 8.3674C9.03402 8.3674 8.82787 8.16125 8.82787 7.90694C8.82787 7.65264 9.03402 7.44648 9.28833 7.44648C9.54264 7.44648 9.74879 7.65264 9.74879 7.90694ZM13.893 7.90694C13.893 8.16125 13.6868 8.3674 13.4325 8.3674C13.1782 8.3674 12.972 8.16125 12.972 7.90694C12.972 7.65264 13.1782 7.44648 13.4325 7.44648C13.6868 7.44648 13.893 7.65264 13.893 7.90694Z" stroke="#878C90" stroke-width="2" stroke-linecap="round" stroke-linejoin="round"/>
</svg>
