<svg width="24" height="24" viewBox="0 0 24 24" fill="none" xmlns="http://www.w3.org/2000/svg">
<path d="M16.9307 0.141113H7.04785C6.11896 0.141113 5.36328 0.896789 5.36328 1.82568V21.4565C5.36328 22.3854 6.11896 23.1411 7.04785 23.1411H16.9307C17.8596 23.1411 18.6152 22.3854 18.6152 21.4565V1.82568C18.6152 0.896789 17.8596 0.141113 16.9307 0.141113ZM17.9414 18.4243H8.39551C8.20944 18.4243 8.05859 18.5752 8.05859 18.7612C8.05859 18.9473 8.20944 19.0981 8.39551 19.0981H17.9414V21.4565C17.9414 22.0139 17.488 22.4673 16.9307 22.4673H7.04785C6.49051 22.4673 6.03711 22.0139 6.03711 21.4565V19.0981H7.04785C7.23392 19.0981 7.38477 18.9473 7.38477 18.7612C7.38477 18.5752 7.23392 18.4243 7.04785 18.4243H6.03711V3.51025H17.9414V18.4243ZM17.9414 2.83643H6.03711V1.82568C6.03711 1.26834 6.49051 0.814941 7.04785 0.814941H16.9307C17.488 0.814941 17.9414 1.26834 17.9414 1.82568V2.83643Z" fill="white"/>
<path d="M13.3369 1.48877H11.9893C11.8032 1.48877 11.6523 1.63962 11.6523 1.82568C11.6523 2.01175 11.8032 2.1626 11.9893 2.1626H13.3369C13.523 2.1626 13.6738 2.01175 13.6738 1.82568C13.6738 1.63962 13.523 1.48877 13.3369 1.48877Z" fill="white"/>
<path d="M11.9873 19.772C11.43 19.772 10.9766 20.2254 10.9766 20.7827C10.9766 21.3401 11.43 21.7935 11.9873 21.7935C12.5447 21.7935 12.998 21.3401 12.998 20.7827C12.998 20.2254 12.5447 19.772 11.9873 19.772ZM11.9873 21.1196C11.8015 21.1196 11.6504 20.9685 11.6504 20.7827C11.6504 20.5969 11.8015 20.4458 11.9873 20.4458C12.1731 20.4458 12.3242 20.5969 12.3242 20.7827C12.3242 20.9685 12.1731 21.1196 11.9873 21.1196Z" fill="white"/>
<path d="M10.6416 2.1626C10.8277 2.1626 10.9785 2.01176 10.9785 1.82568C10.9785 1.63961 10.8277 1.48877 10.6416 1.48877C10.4555 1.48877 10.3047 1.63961 10.3047 1.82568C10.3047 2.01176 10.4555 2.1626 10.6416 2.1626Z" fill="white"/>
</svg>
