<svg width="20" height="22" viewBox="0 0 20 22" fill="none" xmlns="http://www.w3.org/2000/svg">
<path d="M12.261 20.5H8.261M16.261 7.5C16.261 5.9087 15.6289 4.38258 14.5036 3.25736C13.3784 2.13214 11.8523 1.5 10.261 1.5C8.66971 1.5 7.14358 2.13214 6.01836 3.25736C4.89315 4.38258 4.261 5.9087 4.261 7.5C4.261 10.5902 3.48148 12.706 2.61067 14.1054C1.87613 15.2859 1.50886 15.8761 1.52233 16.0408C1.53724 16.2231 1.57587 16.2926 1.72278 16.4016C1.85546 16.5 2.4536 16.5 3.64986 16.5H16.8721C18.0684 16.5 18.6665 16.5 18.7992 16.4016C18.9461 16.2926 18.9848 16.2231 18.9997 16.0408C19.0131 15.8761 18.6459 15.2859 17.9113 14.1054C17.0405 12.706 16.261 10.5902 16.261 7.5Z" stroke="#878C90" stroke-width="2" stroke-linecap="round" stroke-linejoin="round"/>
</svg>
