<svg width="20" height="19" viewBox="0 0 20 19" fill="none" xmlns="http://www.w3.org/2000/svg">
<path d="M13.4646 5.72222C13.4646 6.72415 13.0666 7.68504 12.3581 8.39351C11.6497 9.10199 10.6888 9.5 9.68684 9.5C8.68491 9.5 7.72402 9.10199 7.01555 8.39351C6.30708 7.68504 5.90906 6.72415 5.90906 5.72222M1.78488 5.15686L1.12377 13.0902C0.981746 14.7945 0.910734 15.6466 1.19882 16.304C1.45193 16.8815 1.89048 17.3581 2.44502 17.6583C3.07617 18 3.93126 18 5.64144 18H13.7322C15.4424 18 16.2975 18 16.9287 17.6583C17.4832 17.3581 17.9218 16.8815 18.1749 16.304C18.4629 15.6466 18.3919 14.7945 18.2499 13.0902L17.5888 5.15686C17.4666 3.69049 17.4055 2.9573 17.0808 2.40236C16.7948 1.91369 16.369 1.5219 15.8583 1.27752C15.2783 1 14.5426 1 13.0711 1L6.30255 1C4.8311 1 4.09537 1 3.51538 1.27752C3.00465 1.5219 2.57885 1.91369 2.2929 2.40236C1.96818 2.9573 1.90708 3.69049 1.78488 5.15686Z" stroke="#878C90" stroke-width="2" stroke-linecap="round" stroke-linejoin="round"/>
</svg>
