<svg width="14" height="14" viewBox="0 0 14 14" fill="none" xmlns="http://www.w3.org/2000/svg">
<path d="M12.8544 3.63072C12.8544 3.63072 12.998 3.87695 13.2854 4.36942C13.5728 4.86189 13.7165 5.69127 13.7165 6.85756C13.7165 8.02386 13.4291 9.09947 12.8544 10.0844C12.2796 11.0693 11.4997 11.8492 10.5148 12.424C9.52985 12.9987 8.45424 13.2861 7.28795 13.2861C6.66853 13.2861 6.06027 13.1968 5.46317 13.0183C5.79241 12.4993 6.01004 12.0417 6.11607 11.6455C6.16629 11.4558 6.31696 10.867 6.56808 9.87932C6.67969 10.097 6.88337 10.2853 7.17913 10.4443C7.47489 10.6034 7.79297 10.6829 8.13337 10.6829C8.80859 10.6829 9.41127 10.4918 9.94141 10.1095C10.4715 9.72726 10.8817 9.20131 11.1719 8.53167C11.4621 7.86203 11.6071 7.10868 11.6071 6.27162C11.6071 5.63546 11.4411 5.03837 11.1091 4.48033C10.7771 3.92229 10.2958 3.46749 9.66518 3.11593C9.0346 2.76437 8.3231 2.58859 7.53069 2.58859C6.94475 2.58859 6.39788 2.6695 5.89007 2.83133C5.38225 2.99316 4.95117 3.20801 4.59682 3.47587C4.24247 3.74372 3.93834 4.05204 3.68443 4.40081C3.43052 4.74958 3.24358 5.11091 3.1236 5.48479C3.00363 5.85868 2.94364 6.23256 2.94364 6.60645C2.94364 7.1868 3.05525 7.69741 3.27846 8.13825C3.50167 8.5791 3.82812 8.88881 4.25781 9.06738C4.42522 9.13435 4.53125 9.07854 4.57589 8.89997C4.58705 8.86091 4.60938 8.77441 4.64286 8.64049C4.67634 8.50656 4.69866 8.42285 4.70982 8.38937C4.7433 8.26102 4.71261 8.14104 4.61775 8.02944C4.33315 7.68903 4.19085 7.26772 4.19085 6.76549C4.19085 5.92285 4.48242 5.1988 5.06557 4.59333C5.64872 3.98786 6.41183 3.68513 7.35491 3.68513C8.19754 3.68513 8.85463 3.91392 9.32617 4.37151C9.79771 4.8291 10.0335 5.42341 10.0335 6.15444C10.0335 7.1031 9.84235 7.90946 9.4601 8.57352C9.07785 9.23758 8.58817 9.56962 7.99107 9.56962C7.65067 9.56962 7.37723 9.44824 7.17076 9.2055C6.96429 8.96275 6.90011 8.67118 6.97824 8.33078C7.02288 8.13546 7.09682 7.87458 7.20006 7.54813C7.30329 7.22168 7.387 6.93429 7.45117 6.68597C7.51535 6.43764 7.54743 6.22698 7.54743 6.05399C7.54743 5.77497 7.4721 5.54339 7.32143 5.35924C7.17076 5.17508 6.95591 5.08301 6.6769 5.08301C6.33091 5.08301 6.03795 5.24205 5.79799 5.56013C5.55804 5.87821 5.43806 6.27441 5.43806 6.74874C5.43806 7.15611 5.50781 7.49651 5.64732 7.76995L4.81864 11.2688C4.72377 11.6595 4.6875 12.1533 4.70982 12.7504C3.56027 12.2426 2.63114 11.4586 1.92243 10.3983C1.21373 9.33803 0.859375 8.15778 0.859375 6.85756C0.859375 5.69127 1.14676 4.61565 1.72154 3.63072C2.29632 2.64579 3.07617 1.86593 4.0611 1.29116C5.04604 0.716379 6.12165 0.42899 7.28795 0.42899C8.45424 0.42899 9.52985 0.716379 10.5148 1.29116C11.4997 1.86593 12.2796 2.64579 12.8544 3.63072Z" fill="#B700FF"/>
</svg>
