<svg width="19" height="19" viewBox="0 0 19 19" fill="none" xmlns="http://www.w3.org/2000/svg">
<path d="M6.66667 9.5H2.51111C1.98217 9.5 1.7177 9.5 1.51568 9.60294C1.33797 9.69349 1.19349 9.83797 1.10294 10.0157C1 10.2177 1 10.4822 1 11.0111V16.4889C1 17.0178 1 17.2823 1.10294 17.4843C1.19349 17.662 1.33797 17.8065 1.51568 17.8971C1.7177 18 1.98217 18 2.51111 18H6.66667M6.66667 18H12.3333M6.66667 18L6.66667 6.28889C6.66667 5.75995 6.66667 5.49548 6.7696 5.29345C6.86015 5.11574 7.00463 4.97126 7.18234 4.88072C7.38437 4.77778 7.64884 4.77778 8.17778 4.77778H10.8222C11.3512 4.77778 11.6156 4.77778 11.8177 4.88072C11.9954 4.97126 12.1398 5.11574 12.2304 5.29345C12.3333 5.49548 12.3333 5.75995 12.3333 6.28889V18M12.3333 18H16.4889C17.0178 18 17.2823 18 17.4843 17.8971C17.662 17.8065 17.8065 17.662 17.8971 17.4843C18 17.2823 18 17.0178 18 16.4889V2.51111C18 1.98217 18 1.7177 17.8971 1.51568C17.8065 1.33797 17.662 1.19349 17.4843 1.10294C17.2823 1 17.0178 1 16.4889 1H13.8444C13.3155 1 13.051 1 12.849 1.10294C12.6713 1.19349 12.5268 1.33797 12.4363 1.51568C12.3333 1.7177 12.3333 1.98217 12.3333 2.51111V5.72222" stroke="#878C90" stroke-width="2" stroke-linecap="round" stroke-linejoin="round"/>
</svg>
