<svg width="13" height="13" viewBox="0 0 13 13" fill="none" xmlns="http://www.w3.org/2000/svg">
<path d="M12.0683 5.16817C12.0683 5.27378 12.0059 5.38899 11.8811 5.51381L9.26714 8.06294L9.88642 11.6634C9.89122 11.697 9.89362 11.745 9.89362 11.8074C9.89362 11.9082 9.86842 11.9935 9.81801 12.0631C9.7676 12.1327 9.69439 12.1675 9.59838 12.1675C9.50717 12.1675 9.41116 12.1387 9.31034 12.0811L6.07712 10.3816L2.8439 12.0811C2.73828 12.1387 2.64227 12.1675 2.55586 12.1675C2.45505 12.1675 2.37944 12.1327 2.32903 12.0631C2.27862 11.9935 2.25342 11.9082 2.25342 11.8074C2.25342 11.7786 2.25822 11.7306 2.26782 11.6634L2.8871 8.06294L0.265961 5.51381C0.145945 5.38419 0.0859375 5.26898 0.0859375 5.16817C0.0859375 4.99054 0.220355 4.88013 0.48919 4.83692L4.10406 4.31125L5.72427 1.03483C5.81549 0.838 5.9331 0.739587 6.07712 0.739587C6.22114 0.739587 6.33875 0.838 6.42997 1.03483L8.05018 4.31125L11.6651 4.83692C11.9339 4.88013 12.0683 4.99054 12.0683 5.16817Z" fill="#FFC107"/>
</svg>
