<svg width="45" height="41" viewBox="0 0 45 41" fill="none" xmlns="http://www.w3.org/2000/svg">
<path d="M24.65 5.33333C24.65 7.72657 19.3558 9.66667 12.825 9.66667C6.29423 9.66667 1 7.72657 1 5.33333M24.65 5.33333C24.65 2.9401 19.3558 1 12.825 1C6.29423 1 1 2.9401 1 5.33333M24.65 5.33333V8.58333M1 5.33333V31.3333C1 33.7266 6.29423 35.6667 12.825 35.6667M12.825 18.3333C12.4626 18.3333 12.1041 18.3274 11.75 18.3157C5.72301 18.1166 1 16.2604 1 14M12.825 27C6.29423 27 1 25.0599 1 22.6667M44 19.4167C44 21.8099 38.7058 23.75 32.175 23.75C25.6442 23.75 20.35 21.8099 20.35 19.4167M44 19.4167C44 17.0234 38.7058 15.0833 32.175 15.0833C25.6442 15.0833 20.35 17.0234 20.35 19.4167M44 19.4167V35.6667C44 38.0599 38.7058 40 32.175 40C25.6442 40 20.35 38.0599 20.35 35.6667V19.4167M44 27.5417C44 29.9349 38.7058 31.875 32.175 31.875C25.6442 31.875 20.35 29.9349 20.35 27.5417" stroke="white" stroke-width="1.5" stroke-linecap="round" stroke-linejoin="round"/>
</svg>
