<svg width="19" height="19" viewBox="0 0 19 19" fill="none" xmlns="http://www.w3.org/2000/svg">
<g clip-path="url(#clip0_26_53)">
<path d="M7.86719 15.0876C6.84766 15.0876 5.88672 14.8943 4.98438 14.5076C4.08203 14.1208 3.29688 13.5906 2.62891 12.9167C1.96094 12.2429 1.43359 11.4607 1.04688 10.5701C0.648438 9.66772 0.449219 8.70679 0.449219 7.68726C0.449219 6.65601 0.648438 5.69507 1.04688 4.80444C1.43359 3.9021 1.96094 3.11401 2.62891 2.44019C3.29688 1.76636 4.08203 1.23608 4.98438 0.849365C5.88672 0.462646 6.84766 0.269287 7.86719 0.269287C8.88672 0.269287 9.84766 0.462646 10.75 0.849365C11.6523 1.23608 12.4375 1.76636 13.1055 2.44019C13.7734 3.11401 14.3066 3.9021 14.7051 4.80444C15.0918 5.69507 15.2852 6.65601 15.2852 7.68726C15.2852 8.70679 15.0918 9.66772 14.7051 10.5701C14.3066 11.4607 13.7734 12.2429 13.1055 12.9167C12.4375 13.5906 11.6523 14.1208 10.75 14.5076C9.84766 14.8943 8.88672 15.0876 7.86719 15.0876ZM7.86719 1.67554C7.03516 1.67554 6.25586 1.83374 5.5293 2.15015C4.80273 2.46655 4.16699 2.89722 3.62207 3.44214C3.07715 3.98706 2.64648 4.6228 2.33008 5.34937C2.01367 6.07593 1.85547 6.85522 1.85547 7.68726C1.85547 8.50757 2.01367 9.28687 2.33008 10.0251C2.64648 10.7517 3.07715 11.3875 3.62207 11.9324C4.16699 12.4773 4.80273 12.908 5.5293 13.2244C6.25586 13.5291 7.03516 13.6814 7.86719 13.6814C8.69922 13.6814 9.47852 13.5291 10.2051 13.2244C10.9316 12.908 11.5674 12.4773 12.1123 11.9324C12.6572 11.3875 13.0879 10.7517 13.4043 10.0251C13.7207 9.28687 13.8789 8.50757 13.8789 7.68726C13.8789 6.85522 13.7207 6.07593 13.4043 5.34937C13.0879 4.6228 12.6572 3.98706 12.1123 3.44214C11.5674 2.89722 10.9316 2.46655 10.2051 2.15015C9.47852 1.83374 8.69922 1.67554 7.86719 1.67554ZM18.2383 18.0583C18.3789 17.9294 18.4492 17.7654 18.4492 17.5662C18.4492 17.3669 18.3789 17.2029 18.2383 17.074L15.0918 13.9275C14.9512 13.7869 14.7842 13.7166 14.5908 13.7166C14.3975 13.7166 14.2363 13.7869 14.1074 13.9275C13.9668 14.0681 13.8965 14.2351 13.8965 14.4285C13.8965 14.6218 13.9668 14.783 14.1074 14.9119L17.2363 18.0583C17.3066 18.1287 17.3857 18.1814 17.4736 18.2166C17.5615 18.2517 17.6523 18.2693 17.7461 18.2693C17.8281 18.2693 17.9131 18.2517 18.001 18.2166C18.0889 18.1814 18.168 18.1287 18.2383 18.0583Z" fill="black"/>
</g>
<defs>
<clipPath id="clip0_26_53">
<rect width="18" height="18" fill="white" transform="matrix(1 0 0 -1 0.449219 18.2693)"/>
</clipPath>
</defs>
</svg>
