<svg width="20" height="21" viewBox="0 0 20 21" fill="none" xmlns="http://www.w3.org/2000/svg">
<path d="M17.8678 5.94835L9.67485 10.5M9.67485 10.5L1.48191 5.94835M9.67485 10.5L9.67488 19.6568M5.33745 3.27095L14.0123 8.09033M18.3498 14.412V6.58807C18.3498 6.25781 18.3498 6.09268 18.3011 5.9454C18.2581 5.8151 18.1877 5.6955 18.0947 5.5946C17.9896 5.48053 17.8452 5.40034 17.5565 5.23995L10.4238 1.27735C10.1505 1.12548 10.0138 1.04955 9.86906 1.01978C9.74095 0.993428 9.60882 0.993428 9.48071 1.01978C9.33596 1.04955 9.19928 1.12548 8.92592 1.27735L1.79324 5.23995C1.50454 5.40034 1.36019 5.48054 1.25507 5.5946C1.16208 5.69551 1.09171 5.8151 1.04866 5.9454C1 6.09268 1 6.25781 1 6.58807V14.412C1 14.7422 1 14.9074 1.04866 15.0546C1.09171 15.1849 1.16208 15.3045 1.25507 15.4054C1.36019 15.5195 1.50454 15.5997 1.79324 15.7601L8.92593 19.7227C9.19928 19.8746 9.33596 19.9505 9.48071 19.9803C9.60882 20.0066 9.74095 20.0066 9.86906 19.9803C10.0138 19.9505 10.1505 19.8746 10.4238 19.7227L17.5565 15.7601C17.8452 15.5997 17.9896 15.5195 18.0947 15.4054C18.1877 15.3045 18.2581 15.1849 18.3011 15.0546C18.3498 14.9074 18.3498 14.7422 18.3498 14.412Z" stroke="#878C90" stroke-width="2" stroke-linecap="round" stroke-linejoin="round"/>
</svg>
